<svg xmlns="http://www.w3.org/2000/svg" viewBox="0 0 1024 1024" role="img" aria-labelledby="title desc">
  <title id="title">RoadFlare app icon preview using theme background</title>
  <desc id="desc">The original dark foreground artwork traced into vector form over a background using RoadFlare theme oranges.</desc>
  <defs>
    <linearGradient id="bg" x1="50%" y1="0%" x2="50%" y2="100%">
      <stop offset="0%" stop-color="#FF906C"/>
      <stop offset="100%" stop-color="#FF7346"/>
    </linearGradient>
    <radialGradient id="glow" cx="50%" cy="34%" r="44%">
      <stop offset="0%" stop-color="#FFC563"/>
      <stop offset="100%" stop-color="#FFC563" stop-opacity="0"/>
    </radialGradient>
  </defs>
  <rect width="1024" height="1024" fill="url(#bg)"/>
  <rect width="1024" height="1024" fill="url(#glow)"/>
  <circle cx="509.21" cy="152.95" r="10.24" fill="#FFDB8A"/>
  <path fill="#26201B" fill-rule="evenodd" d="
M 495.86 56.49 L 498.80 56.49 L 501.73 62.28 L 504.66 120.21 L 495.86 75.32 Z M 629.36 60.83 L 633.77 60.83 L 630.83 68.07 L 607.36 79.66 L 611.76 72.42 Z M 538.41 72.42 L 542.81 72.42 L 542.81 78.21 L 520.80 124.56 L 523.74 110.08 Z M 387.30 73.87 L 394.64 75.32 L 404.91 85.45 L 390.23 79.66 Z M 517.87 78.21 L 520.80 78.21 L 520.80 88.35 L 517.87 99.94 L 514.93 101.39 Z M 459.19 79.66 L 465.05 82.56 L 488.53 123.11 L 469.46 101.39 L 459.19 85.45 Z M 556.01 88.35 L 558.95 88.35 L 557.48 95.59 L 541.34 112.97 L 541.34 115.87 L 536.94 117.32 L 544.28 102.83 Z M 586.82 89.80 L 591.22 89.80 L 591.22 94.14 L 586.82 98.49 L 539.87 133.25 L 534.01 134.70 Z M 447.45 91.25 L 451.85 91.25 L 460.65 102.83 L 447.45 94.14 Z M 419.58 92.70 L 428.38 95.59 L 450.38 110.08 L 479.72 134.70 L 473.86 133.25 L 459.19 121.66 L 440.11 111.52 L 437.18 107.18 L 422.51 99.94 L 418.11 95.59 Z M 586.82 114.42 L 591.22 114.42 L 589.75 118.77 L 561.88 130.35 L 564.81 126.01 Z M 419.58 117.32 L 428.38 118.77 L 444.52 126.01 L 445.98 128.91 L 421.04 121.66 Z M 334.49 121.66 L 362.36 127.46 L 365.30 130.35 L 334.49 128.91 L 331.55 126.01 Z M 674.84 121.66 L 682.18 121.66 L 682.18 127.46 L 648.44 128.91 Z M 617.63 130.35 L 624.96 131.80 L 623.50 134.70 L 617.63 136.15 L 550.14 144.84 L 580.95 136.15 Z M 388.77 131.80 L 432.78 136.15 L 470.92 146.29 L 390.23 136.15 Z M 437.18 156.42 L 445.98 156.42 L 447.45 159.32 L 419.58 162.22 L 419.58 157.87 Z M 570.68 156.42 L 601.49 156.42 L 604.42 160.77 L 588.29 160.77 Z M 541.34 162.22 L 588.29 172.36 L 608.83 179.60 L 622.03 188.29 L 610.29 186.84 Z M 470.92 163.67 L 476.79 163.67 L 473.86 166.56 L 456.25 170.91 L 419.58 186.84 L 406.37 188.29 L 406.37 185.39 L 418.11 179.60 Z M 535.47 176.70 L 560.41 198.43 L 563.35 198.43 L 583.89 220.15 L 583.89 223.05 L 579.48 224.50 L 548.68 194.08 Z M 481.19 179.60 L 484.13 181.05 L 459.19 207.12 L 459.19 210.01 L 447.45 221.60 L 441.58 221.60 L 441.58 217.26 L 447.45 212.91 L 447.45 210.01 L 451.85 208.57 L 453.32 204.22 Z M 564.81 183.94 L 579.48 189.74 L 586.82 195.53 L 586.82 198.43 L 570.68 191.19 L 564.81 186.84 Z M 453.32 186.84 L 454.79 191.19 L 444.52 195.53 L 441.58 199.88 L 438.65 198.43 L 443.05 191.19 Z M 509.07 188.29 L 512.00 188.29 L 517.87 234.64 L 516.40 260.71 L 528.14 280.98 L 531.07 298.36 L 522.27 334.57 L 539.87 363.54 L 539.87 379.47 L 525.20 402.65 L 525.20 418.58 L 545.74 453.34 L 544.28 469.27 L 525.20 499.69 L 525.20 506.93 L 542.81 537.35 L 539.87 554.73 L 531.07 569.21 L 544.28 570.66 L 556.01 563.42 L 561.88 566.31 L 556.01 575.00 L 573.62 572.11 L 566.28 579.35 L 582.42 579.35 L 570.68 585.14 L 583.89 588.04 L 576.55 592.38 L 545.74 588.04 L 541.34 590.94 L 580.95 621.35 L 658.70 670.60 L 729.12 709.70 L 837.68 761.84 L 843.55 760.40 L 849.42 748.81 L 847.95 766.19 L 853.82 767.64 L 858.22 761.84 L 858.22 770.53 L 880.23 780.67 L 887.56 779.22 L 891.97 785.02 L 894.90 785.02 L 897.83 767.64 L 899.30 787.92 L 905.17 790.81 L 908.10 790.81 L 908.10 780.67 L 903.70 767.64 L 913.97 780.67 L 916.91 795.16 L 919.84 795.16 L 919.84 777.78 L 922.77 777.78 L 922.77 796.61 L 927.17 799.50 L 930.11 799.50 L 941.85 764.74 L 943.31 780.67 L 937.44 802.40 L 950.65 809.64 L 950.65 790.81 L 953.58 790.81 L 962.38 813.99 L 965.32 813.99 L 969.72 795.16 L 982.92 779.22 L 974.12 800.95 L 972.65 818.33 L 984.39 809.64 L 978.52 819.78 L 999.06 827.02 L 990.26 808.19 L 999.06 819.78 L 1003.46 811.09 L 1006.40 829.92 L 1010.80 834.26 L 1015.20 832.81 L 1024.00 809.64 L 1021.07 887.85 L 1012.26 915.37 L 991.72 945.79 L 899.30 882.06 L 754.06 773.43 L 604.42 654.66 L 529.60 589.49 L 604.42 661.91 L 960.92 979.10 L 957.98 986.34 L 934.51 1003.72 L 927.17 1003.72 L 925.71 1008.07 L 906.64 1012.41 L 903.70 1016.76 L 893.43 1016.76 L 889.03 1021.10 L 845.02 1024.00 L 820.08 1019.65 L 764.33 916.82 L 679.24 786.47 L 597.09 677.84 L 517.87 589.49 L 503.20 589.49 L 489.99 627.15 L 457.72 685.08 L 379.97 790.81 L 321.28 855.99 L 230.33 945.79 L 145.24 1021.10 L 111.50 1012.41 L 77.75 995.03 L 46.95 967.51 L 39.61 955.93 L 198.05 861.78 L 296.34 795.16 L 357.96 747.36 L 440.11 669.15 L 473.86 627.15 L 495.86 589.49 L 459.19 638.73 L 410.77 687.98 L 299.28 774.88 L 225.93 822.68 L 88.02 900.89 L 26.41 932.75 L 17.60 924.06 L 2.93 882.06 L 0.00 831.37 L 16.14 808.19 L 19.07 811.09 L 11.74 828.47 L 33.74 821.23 L 26.41 811.09 L 36.68 819.78 L 42.54 818.33 L 39.61 796.61 L 32.28 779.22 L 45.48 793.71 L 52.81 815.43 L 64.55 790.81 L 67.48 790.81 L 64.55 811.09 L 80.69 806.74 L 76.29 787.92 L 77.75 766.19 L 89.49 799.50 L 95.36 800.95 L 99.76 785.02 L 112.96 770.53 L 107.09 792.26 L 107.09 796.61 L 111.50 796.61 L 117.36 793.71 L 124.70 770.53 L 124.70 792.26 L 134.97 787.92 L 134.97 780.67 L 140.84 786.47 L 168.71 776.33 L 167.24 764.74 L 173.11 773.43 L 180.45 771.98 L 181.91 750.26 L 189.25 767.64 L 228.86 753.15 L 327.15 708.25 L 385.83 674.94 L 456.25 621.35 L 478.26 599.63 L 484.13 588.04 L 440.11 595.28 L 448.92 589.49 L 437.18 588.04 L 451.85 583.69 L 434.25 579.35 L 437.18 585.14 L 423.98 588.04 L 233.26 598.18 L 0.00 619.90 L 0.00 477.96 L 225.93 353.40 L 242.06 353.40 L 271.40 372.23 L 305.15 349.06 L 321.28 346.16 L 470.92 437.41 L 469.46 462.03 L 478.26 476.51 L 479.72 492.45 L 465.05 519.97 L 467.99 546.04 L 444.52 567.76 L 443.05 576.45 L 456.25 579.35 L 448.92 570.66 L 466.52 573.56 L 459.19 561.97 L 465.05 566.31 L 470.92 561.97 L 475.32 569.21 L 488.53 570.66 L 491.46 543.14 L 482.66 528.66 L 482.66 515.62 L 487.06 502.59 L 494.40 495.34 L 495.86 477.96 L 488.53 469.27 L 492.93 447.55 L 479.72 425.82 L 479.72 408.44 L 500.26 376.58 L 498.80 363.54 L 488.53 349.06 L 487.06 330.23 L 504.66 302.71 L 504.66 288.23 L 495.86 260.71 L 504.66 240.43 L 504.66 207.12 Z M 526.67 189.74 L 542.81 220.15 L 541.34 228.84 L 535.47 224.50 Z M 491.46 192.63 L 492.93 196.98 L 489.99 208.57 L 484.13 225.95 L 479.72 227.39 L 478.26 217.26 Z M 639.63 194.08 L 661.64 199.88 L 666.04 205.67 L 660.17 205.67 L 641.10 196.98 Z M 382.90 195.53 L 387.30 195.53 L 385.83 198.43 L 362.36 210.01 L 356.49 210.01 L 356.49 205.67 Z M 432.78 231.74 L 434.25 234.64 L 431.31 240.43 L 419.58 253.47 L 419.58 244.78 Z M 595.62 238.98 L 608.83 250.57 L 607.36 253.47 L 601.49 250.57 Z M 710.05 346.16 L 727.66 349.06 L 758.46 370.78 L 768.73 370.78 L 793.67 353.40 L 809.81 353.40 L 1022.53 473.62 L 1024.00 621.35 L 610.29 589.49 L 594.15 586.59 L 585.35 579.35 L 583.89 556.18 L 561.88 538.79 L 558.95 524.31 L 544.28 504.03 L 545.74 492.45 L 558.95 467.82 L 554.54 440.31 Z M 520.80 641.63 L 525.20 647.42 L 525.20 651.77 L 522.27 653.22 L 519.34 645.97 Z M 522.27 667.70 L 532.54 667.70 L 534.01 680.74 L 522.27 680.74 Z M 520.80 701.01 L 538.41 701.01 L 541.34 721.29 L 520.80 721.29 Z M 516.40 747.36 L 544.28 748.81 L 544.28 785.02 L 509.07 785.02 Z M 497.33 824.12 L 542.81 824.12 L 541.34 855.99 L 535.47 880.61 L 473.86 879.16 L 492.93 840.06 Z M 66.00 940.00 L 62.00 980.00 L 89.00 1000.00 L 118.00 1024.00 L 0.00 1024.00 Z M 994.00 940.00 L 959.00 980.00 L 938.00 1000.00 L 906.00 1024.00 L 1024.00 1024.00 Z"/>
</svg>