<svg xmlns="http://www.w3.org/2000/svg" viewBox="0 0 730 735" role="img" aria-labelledby="title desc">
  <title id="title">RoadFlare dark foreground trace</title>
  <desc id="desc">Editable vector trace of the dark foreground artwork from the RoadFlare app icon.</desc>
  <path fill="#26201B" fill-rule="evenodd" d="
M 353.00 48.00 L 355.00 48.00 L 357.00 52.00 L 359.00 92.00 L 353.00 61.00 Z M 444.00 51.00 L 447.00 51.00 L 445.00 56.00 L 429.00 64.00 L 432.00 59.00 Z M 382.00 59.00 L 385.00 59.00 L 385.00 63.00 L 370.00 95.00 L 372.00 85.00 Z M 279.00 60.00 L 284.00 61.00 L 291.00 68.00 L 281.00 64.00 Z M 368.00 63.00 L 370.00 63.00 L 370.00 70.00 L 368.00 78.00 L 366.00 79.00 Z M 328.00 64.00 L 332.00 66.00 L 348.00 94.00 L 335.00 79.00 L 328.00 68.00 Z M 394.00 70.00 L 396.00 70.00 L 395.00 75.00 L 384.00 87.00 L 384.00 89.00 L 381.00 90.00 L 386.00 80.00 Z M 415.00 71.00 L 418.00 71.00 L 418.00 74.00 L 415.00 77.00 L 383.00 101.00 L 379.00 102.00 Z M 320.00 72.00 L 323.00 72.00 L 329.00 80.00 L 320.00 74.00 Z M 301.00 73.00 L 307.00 75.00 L 322.00 85.00 L 342.00 102.00 L 338.00 101.00 L 328.00 93.00 L 315.00 86.00 L 313.00 83.00 L 303.00 78.00 L 300.00 75.00 Z M 415.00 88.00 L 418.00 88.00 L 417.00 91.00 L 398.00 99.00 L 400.00 96.00 Z M 301.00 90.00 L 307.00 91.00 L 318.00 96.00 L 319.00 98.00 L 302.00 93.00 Z M 243.00 93.00 L 262.00 97.00 L 264.00 99.00 L 243.00 98.00 L 241.00 96.00 Z M 475.00 93.00 L 480.00 93.00 L 480.00 97.00 L 457.00 98.00 Z M 436.00 99.00 L 441.00 100.00 L 440.00 102.00 L 436.00 103.00 L 390.00 109.00 L 411.00 103.00 Z M 280.00 100.00 L 310.00 103.00 L 336.00 110.00 L 281.00 103.00 Z M 313.00 117.00 L 319.00 117.00 L 320.00 119.00 L 301.00 121.00 L 301.00 118.00 Z M 404.00 117.00 L 425.00 117.00 L 427.00 120.00 L 416.00 120.00 Z M 384.00 121.00 L 416.00 128.00 L 430.00 133.00 L 439.00 139.00 L 431.00 138.00 Z M 336.00 122.00 L 340.00 122.00 L 338.00 124.00 L 326.00 127.00 L 301.00 138.00 L 292.00 139.00 L 292.00 137.00 L 300.00 133.00 Z M 380.00 131.00 L 397.00 146.00 L 399.00 146.00 L 413.00 161.00 L 413.00 163.00 L 410.00 164.00 L 389.00 143.00 Z M 343.00 133.00 L 345.00 134.00 L 328.00 152.00 L 328.00 154.00 L 320.00 162.00 L 316.00 162.00 L 316.00 159.00 L 320.00 156.00 L 320.00 154.00 L 323.00 153.00 L 324.00 150.00 Z M 400.00 136.00 L 410.00 140.00 L 415.00 144.00 L 415.00 146.00 L 404.00 141.00 L 400.00 138.00 Z M 324.00 138.00 L 325.00 141.00 L 318.00 144.00 L 316.00 147.00 L 314.00 146.00 L 317.00 141.00 Z M 362.00 139.00 L 364.00 139.00 L 368.00 171.00 L 367.00 189.00 L 375.00 203.00 L 377.00 215.00 L 371.00 240.00 L 383.00 260.00 L 383.00 271.00 L 373.00 287.00 L 373.00 298.00 L 387.00 322.00 L 386.00 333.00 L 373.00 354.00 L 373.00 359.00 L 385.00 380.00 L 383.00 392.00 L 377.00 402.00 L 386.00 403.00 L 394.00 398.00 L 398.00 400.00 L 394.00 406.00 L 406.00 404.00 L 401.00 409.00 L 412.00 409.00 L 404.00 413.00 L 413.00 415.00 L 408.00 418.00 L 387.00 415.00 L 384.00 417.00 L 411.00 438.00 L 464.00 472.00 L 512.00 499.00 L 586.00 535.00 L 590.00 534.00 L 594.00 526.00 L 593.00 538.00 L 597.00 539.00 L 600.00 535.00 L 600.00 541.00 L 615.00 548.00 L 620.00 547.00 L 623.00 551.00 L 625.00 551.00 L 627.00 539.00 L 628.00 553.00 L 632.00 555.00 L 634.00 555.00 L 634.00 548.00 L 631.00 539.00 L 638.00 548.00 L 640.00 558.00 L 642.00 558.00 L 642.00 546.00 L 644.00 546.00 L 644.00 559.00 L 647.00 561.00 L 649.00 561.00 L 657.00 537.00 L 658.00 548.00 L 654.00 563.00 L 663.00 568.00 L 663.00 555.00 L 665.00 555.00 L 671.00 571.00 L 673.00 571.00 L 676.00 558.00 L 685.00 547.00 L 679.00 562.00 L 678.00 574.00 L 686.00 568.00 L 682.00 575.00 L 696.00 580.00 L 690.00 567.00 L 696.00 575.00 L 699.00 569.00 L 701.00 582.00 L 704.00 585.00 L 707.00 584.00 L 713.00 568.00 L 711.00 622.00 L 705.00 641.00 L 691.00 662.00 L 628.00 618.00 L 529.00 543.00 L 427.00 461.00 L 376.00 416.00 L 427.00 466.00 L 670.00 685.00 L 668.00 690.00 L 652.00 702.00 L 647.00 702.00 L 646.00 705.00 L 633.00 708.00 L 631.00 711.00 L 624.00 711.00 L 621.00 714.00 L 591.00 716.00 L 574.00 713.00 L 536.00 642.00 L 478.00 552.00 L 422.00 477.00 L 368.00 416.00 L 358.00 416.00 L 349.00 442.00 L 327.00 482.00 L 274.00 555.00 L 234.00 600.00 L 172.00 662.00 L 114.00 714.00 L 91.00 708.00 L 68.00 696.00 L 47.00 677.00 L 42.00 669.00 L 150.00 604.00 L 217.00 558.00 L 259.00 525.00 L 315.00 471.00 L 338.00 442.00 L 353.00 416.00 L 328.00 450.00 L 295.00 484.00 L 219.00 544.00 L 169.00 577.00 L 75.00 631.00 L 33.00 653.00 L 27.00 647.00 L 17.00 618.00 L 15.00 583.00 L 26.00 567.00 L 28.00 569.00 L 23.00 581.00 L 38.00 576.00 L 33.00 569.00 L 40.00 575.00 L 44.00 574.00 L 42.00 559.00 L 37.00 547.00 L 46.00 557.00 L 51.00 572.00 L 59.00 555.00 L 61.00 555.00 L 59.00 569.00 L 70.00 566.00 L 67.00 553.00 L 68.00 538.00 L 76.00 561.00 L 80.00 562.00 L 83.00 551.00 L 92.00 541.00 L 88.00 556.00 L 88.00 559.00 L 91.00 559.00 L 95.00 557.00 L 100.00 541.00 L 100.00 556.00 L 107.00 553.00 L 107.00 548.00 L 111.00 552.00 L 130.00 545.00 L 129.00 537.00 L 133.00 543.00 L 138.00 542.00 L 139.00 527.00 L 144.00 539.00 L 171.00 529.00 L 238.00 498.00 L 278.00 475.00 L 326.00 438.00 L 341.00 423.00 L 345.00 415.00 L 315.00 420.00 L 321.00 416.00 L 313.00 415.00 L 323.00 412.00 L 311.00 409.00 L 313.00 413.00 L 304.00 415.00 L 174.00 422.00 L 15.00 437.00 L 15.00 339.00 L 169.00 253.00 L 180.00 253.00 L 200.00 266.00 L 223.00 250.00 L 234.00 248.00 L 336.00 311.00 L 335.00 328.00 L 341.00 338.00 L 342.00 349.00 L 332.00 368.00 L 334.00 386.00 L 318.00 401.00 L 317.00 407.00 L 326.00 409.00 L 321.00 403.00 L 333.00 405.00 L 328.00 397.00 L 332.00 400.00 L 336.00 397.00 L 339.00 402.00 L 348.00 403.00 L 350.00 384.00 L 344.00 374.00 L 344.00 365.00 L 347.00 356.00 L 352.00 351.00 L 353.00 339.00 L 348.00 333.00 L 351.00 318.00 L 342.00 303.00 L 342.00 291.00 L 356.00 269.00 L 355.00 260.00 L 348.00 250.00 L 347.00 237.00 L 359.00 218.00 L 359.00 208.00 L 353.00 189.00 L 359.00 175.00 L 359.00 152.00 Z M 374.00 140.00 L 385.00 161.00 L 384.00 167.00 L 380.00 164.00 Z M 350.00 142.00 L 351.00 145.00 L 349.00 153.00 L 345.00 165.00 L 342.00 166.00 L 341.00 159.00 Z M 451.00 143.00 L 466.00 147.00 L 469.00 151.00 L 465.00 151.00 L 452.00 145.00 Z M 276.00 144.00 L 279.00 144.00 L 278.00 146.00 L 262.00 154.00 L 258.00 154.00 L 258.00 151.00 Z M 310.00 169.00 L 311.00 171.00 L 309.00 175.00 L 301.00 184.00 L 301.00 178.00 Z M 421.00 174.00 L 430.00 182.00 L 429.00 184.00 L 425.00 182.00 Z M 499.00 248.00 L 511.00 250.00 L 532.00 265.00 L 539.00 265.00 L 556.00 253.00 L 567.00 253.00 L 712.00 336.00 L 713.00 438.00 L 431.00 416.00 L 420.00 414.00 L 414.00 409.00 L 413.00 393.00 L 398.00 381.00 L 396.00 371.00 L 386.00 357.00 L 387.00 349.00 L 396.00 332.00 L 393.00 313.00 Z M 370.00 452.00 L 373.00 456.00 L 373.00 459.00 L 371.00 460.00 L 369.00 455.00 Z M 371.00 470.00 L 378.00 470.00 L 379.00 479.00 L 371.00 479.00 Z M 370.00 493.00 L 382.00 493.00 L 384.00 507.00 L 370.00 507.00 Z M 367.00 525.00 L 386.00 526.00 L 386.00 551.00 L 362.00 551.00 Z M 354.00 578.00 L 385.00 578.00 L 384.00 600.00 L 380.00 617.00 L 338.00 616.00 L 351.00 589.00 Z
"/>
</svg>