<svg xmlns="http://www.w3.org/2000/svg" viewBox="0 0 1024 1024" role="img" aria-labelledby="title desc">
  <title id="title">RoadFlare app icon artwork</title>
  <desc id="desc">A stylized road running toward a flare beacon between dark mountains under an orange sky.</desc>
  <defs>
    <radialGradient id="sky" cx="50%" cy="36%" r="78%">
      <stop offset="0%" stop-color="#ffe676"/>
      <stop offset="32%" stop-color="#ffd03c"/>
      <stop offset="68%" stop-color="#ff980d"/>
      <stop offset="100%" stop-color="#c85a00"/>
    </radialGradient>
    <linearGradient id="roadCore" x1="50%" y1="58%" x2="50%" y2="100%">
      <stop offset="0%" stop-color="#ffd74f"/>
      <stop offset="100%" stop-color="#ff9308"/>
    </linearGradient>
    <style>
      .silhouette { fill: #1d1714; }
      .spark { stroke: #231914; stroke-width: 6; stroke-linecap: round; }
    </style>
  </defs>

  <rect width="1024" height="1024" fill="url(#sky)"/>

  <path class="silhouette" d="M0 505L214 368l36 21 45-30 220 139v42L0 580z"/>
  <path class="silhouette" d="M1024 505L810 368l-36 21-45-30-220 139v42l515 40z"/>

  <path d="M0 578Q512 530 1024 578L1024 760Q512 700 0 760z" fill="#ffac14"/>

  <path class="silhouette" d="M0 952L428 620h48L224 1024H0z"/>
  <path class="silhouette" d="M1024 952L596 620h-48l252 404h224z"/>
  <path class="silhouette" d="M188 1024l274-404h20l-140 404z"/>
  <path class="silhouette" d="M836 1024L562 620h-20l140 404z"/>

  <path d="M348 1024L486 620h52l138 404z" fill="url(#roadCore)"/>

  <g fill="#1d1714">
    <rect x="499" y="726" width="26" height="40" transform="rotate(1 512 746)"/>
    <rect x="492" y="812" width="40" height="50" transform="rotate(1 512 837)"/>
    <rect x="482" y="926" width="60" height="62" transform="rotate(1 512 957)"/>
  </g>

  <path class="silhouette" d="M474 612c9-24 23-38 38-38s29 14 38 38c-23-13-53-13-76 0z"/>
  <path class="silhouette" d="M498 581c-24-68 34-96 2-160-17-35 10-58 2-105-8-50 24-77 10-132h29c-14 55 18 82 10 132-8 47 19 70 2 105-32 64 26 92 2 160-11 35-56 35-67 0z"/>

  <g fill="#1d1714">
    <path d="M450 600c-12 4-20 10-24 18 16-2 28 2 37 11-2-12-7-22-13-29z"/>
    <path d="M574 600c12 4 20 10 24 18-16-2-28 2-37 11 2-12 7-22 13-29z"/>
  </g>

  <g class="spark">
    <line x1="512" y1="181" x2="512" y2="104"/>
    <line x1="512" y1="181" x2="470" y2="86"/>
    <line x1="512" y1="181" x2="553" y2="84"/>
    <line x1="512" y1="181" x2="420" y2="116"/>
    <line x1="512" y1="181" x2="603" y2="116"/>
    <line x1="512" y1="181" x2="386" y2="162"/>
    <line x1="512" y1="181" x2="638" y2="162"/>
    <line x1="512" y1="181" x2="410" y2="229"/>
    <line x1="512" y1="181" x2="614" y2="229"/>
    <line x1="512" y1="181" x2="450" y2="268"/>
    <line x1="512" y1="181" x2="574" y2="268"/>
    <line x1="512" y1="181" x2="316" y2="192"/>
    <line x1="512" y1="181" x2="708" y2="192"/>
    <line x1="512" y1="181" x2="351" y2="255"/>
    <line x1="512" y1="181" x2="673" y2="255"/>
    <line x1="512" y1="181" x2="432" y2="324"/>
    <line x1="512" y1="181" x2="592" y2="324"/>
  </g>

  <circle cx="512" cy="181" r="10" fill="#ffe89a"/>

  <g class="silhouette">
    <path d="M41 922l13-26 7 24 15-36 10 38 19-41 10 35 21-50 6 52 16-29 14 36 23-42 10 61H41z"/>
    <path d="M983 922l-13-26-7 24-15-36-10 38-19-41-10 35-21-50-6 52-16-29-14 36-23-42-10 61h164z"/>
  </g>
</svg>
